# Alias OBJ Model File
# Exported from SketchUp, (c) 2000-2012 Trimble Navigation Limited
# File units = inches

mtllib coin.mtl

g Mesh1 SUBWAY_SURFERS_Coin1 Model

usemtl Green
v 26.5242 8.23317 7.13649
vt 27.5448 30.7555
vn 0 0 1
v 39.2516 17.9992 7.13649
vt 27.5256 30.7657
v 49.0176 30.7266 7.13649
vt 27.511 30.7791
v 55.1568 45.548 7.13649
vt 27.5017 30.7947
v 57.2508 61.4532 7.13649
vt 27.4986 30.8114
v 55.1568 77.3585 7.13649
vt 27.5017 30.8281
v 49.0176 92.1799 7.13649
vt 27.511 30.8436
v 39.2516 104.907 7.13649
vt 27.5256 30.857
v 26.5242 114.673 7.13649
vt 27.5448 30.8673
v 11.7028 120.813 7.13649
vt 27.5671 30.8737
v -4.20243 122.906 7.13649
vt 27.591 30.8759
v -20.1077 120.813 7.13649
vt 27.6149 30.8737
v -34.929 114.673 7.13649
vt 27.6372 30.8673
v -47.6564 104.907 7.13649
vt 27.6563 30.857
v -57.4225 92.1799 7.13649
vt 27.671 30.8436
v -63.5617 77.3585 7.13649
vt 27.6802 30.8281
v -65.6557 61.4532 7.13649
vt 27.6833 30.8114
v -63.5617 45.548 7.13649
vt 27.6802 30.7947
v -57.4225 30.7266 7.13649
vt 27.671 30.7791
v -47.6564 17.9992 7.13649
vt 27.6563 30.7657
v -34.929 8.23317 7.13649
vt 27.6372 30.7555
v -20.1077 2.09397 7.13649
vt 27.6149 30.749
v -4.20243 0 7.13649
vt 27.591 30.7468
v 11.7028 2.09397 7.13649
vt 27.5671 30.749
f 1/1/1 2/2/1 3/3/1 4/4/1 5/5/1 6/6/1 7/7/1 8/8/1 9/9/1 10/10/1 11/11/1 12/12/1 13/13/1 14/14/1 15/15/1 16/16/1 17/17/1 18/18/1 19/19/1 20/20/1 21/21/1 22/22/1 23/23/1 24/24/1 

usemtl _Beige_1
vt 19.685 57.2822
vn 0.608761 -0.793353 -0
vt 19.685 55.6552
v 26.5242 8.23317 -16.1549
vt 22.0472 55.6552
v 39.2516 17.9992 -16.1549
vt 22.0472 57.2822
f 2/25/2 1/26/2 25/27/2 26/28/2 

vt 19.685 53.1798
vn 0.382683 -0.92388 -0
vt 19.685 51.5528
v 11.7028 2.09397 -16.1549
vt 22.0472 51.5528
vt 22.0472 53.1798
f 1/29/3 24/30/3 27/31/3 25/32/3 

vt 19.685 45.5087
vn 0.130526 -0.991445 -0
vt 19.685 43.8817
v -4.20243 0 -16.1549
vt 22.0472 43.8817
vt 22.0472 45.5087
f 24/33/4 23/34/4 28/35/4 27/36/4 

vt -19.685 -34.7917
vn -0.130526 -0.991445 -0
vt -19.685 -33.1647
v -20.1077 2.09397 -16.1549
vt -22.0472 -33.1647
vt -22.0472 -34.7917
f 23/37/5 22/38/5 29/39/5 28/40/5 

vt -19.685 -21.7592
vn -0.382683 -0.92388 -0
vt -19.685 -20.1322
v -34.929 8.23317 -16.1549
vt -22.0472 -20.1322
vt -22.0472 -21.7592
f 22/41/6 21/42/6 30/43/6 29/44/6 

vt -19.685 -7.29925
vn -0.608761 -0.793353 -0
vt -19.685 -5.67222
v -47.6564 17.9992 -16.1549
vt -22.0472 -5.67222
vt -22.0472 -7.29925
f 21/45/7 20/46/7 31/47/7 30/48/7 

vt -19.685 7.60269
vn -0.793353 -0.608761 -0
vt -19.685 9.22972
v -57.4225 30.7266 -16.1549
vt -22.0472 9.22972
vt -22.0472 7.60269
f 20/49/8 19/50/8 32/51/8 31/52/8 

vt -19.685 21.9311
vn -0.92388 -0.382683 -0
vt -19.685 23.5581
v -63.5617 45.548 -16.1549
vt -22.0472 23.5581
vt -22.0472 21.9311
f 19/53/9 18/54/9 33/55/9 32/56/9 

vt -19.685 34.7095
vn -0.991445 -0.130526 -0
vt -19.685 36.3365
v -65.6557 61.4532 -16.1549
vt -22.0472 36.3365
vt -22.0472 34.7095
f 18/57/10 17/58/10 34/59/10 33/60/10 

vt -19.685 45.067
vn -0.991445 0.130526 -0
vt -19.685 46.6941
v -63.5617 77.3585 -16.1549
vt -22.0472 46.6941
vt -22.0472 45.067
f 17/61/11 16/62/11 35/63/11 34/64/11 

vt -19.685 52.2979
vn -0.92388 0.382683 -0
vt -19.685 53.9249
v -57.4225 92.1799 -16.1549
vt -22.0472 53.9249
vt -22.0472 52.2979
f 16/65/12 15/66/12 36/67/12 35/68/12 

vt -19.685 55.9093
vn -0.793353 0.608761 -0
vt -19.685 57.5363
v -47.6564 104.907 -16.1549
vt -22.0472 57.5363
vt -22.0472 55.9093
f 15/69/13 14/70/13 37/71/13 36/72/13 

vt -19.685 55.6552
vn -0.608761 0.793353 -0
vt -19.685 57.2822
v -34.929 114.673 -16.1549
vt -22.0472 57.2822
vt -22.0472 55.6552
f 14/73/14 13/74/14 38/75/14 37/76/14 

vt -19.685 51.5528
vn -0.382683 0.92388 -0
vt -19.685 53.1798
v -20.1077 120.813 -16.1549
vt -22.0472 53.1798
vt -22.0472 51.5528
f 13/77/15 12/78/15 39/79/15 38/80/15 

vt -19.685 43.8817
vn -0.130526 0.991445 -0
vt -19.685 45.5087
v -4.20243 122.906 -16.1549
vt -22.0472 45.5087
vt -22.0472 43.8817
f 12/81/16 11/82/16 40/83/16 39/84/16 

vt 19.685 -33.1647
vn 0.130526 0.991445 -0
vt 19.685 -34.7917
v 11.7028 120.813 -16.1549
vt 22.0472 -34.7917
vt 22.0472 -33.1647
f 11/85/17 10/86/17 41/87/17 40/88/17 

vt 19.685 -20.1322
vn 0.382683 0.92388 -0
vt 19.685 -21.7592
v 26.5242 114.673 -16.1549
vt 22.0472 -21.7592
vt 22.0472 -20.1322
f 10/89/18 9/90/18 42/91/18 41/92/18 

vt 19.685 -5.67222
vn 0.608761 0.793353 -0
vt 19.685 -7.29925
v 39.2516 104.907 -16.1549
vt 22.0472 -7.29925
vt 22.0472 -5.67222
f 9/93/19 8/94/19 43/95/19 42/96/19 

vt 19.685 9.22972
vn 0.793353 0.608761 -0
vt 19.685 7.60269
v 49.0176 92.1799 -16.1549
vt 22.0472 7.60269
vt 22.0472 9.22972
f 8/97/20 7/98/20 44/99/20 43/100/20 

vt 19.685 23.5581
vn 0.92388 0.382683 -0
vt 19.685 21.9311
v 55.1568 77.3585 -16.1549
vt 22.0472 21.9311
vt 22.0472 23.5581
f 7/101/21 6/102/21 45/103/21 44/104/21 

vt 19.685 36.3365
vn 0.991445 0.130526 -0
vt 19.685 34.7095
v 57.2508 61.4532 -16.1549
vt 22.0472 34.7095
vt 22.0472 36.3365
f 6/105/22 5/106/22 46/107/22 45/108/22 

vt 19.685 46.6941
vn 0.991445 -0.130526 -0
vt 19.685 45.067
v 55.1568 45.548 -16.1549
vt 22.0472 45.067
vt 22.0472 46.6941
f 5/109/23 4/110/23 47/111/23 46/112/23 

vt 19.685 53.9249
vn 0.92388 -0.382683 -0
vt 19.685 52.2979
v 49.0176 30.7266 -16.1549
vt 22.0472 52.2979
vt 22.0472 53.9249
f 4/113/24 3/114/24 48/115/24 47/116/24 

vt 19.685 57.5363
vn 0.793353 -0.608761 -0
vt 19.685 55.9093
vt 22.0472 55.9093
vt 22.0472 57.5363
f 3/117/25 2/118/25 26/119/25 48/120/25 

usemtl Green
vt 28.6559 30.7655
vn 0 0 -1
vt 28.6368 30.7552
vt 28.6145 30.7488
vt 28.5906 30.7466
vt 28.5667 30.7488
vt 28.5444 30.7552
vt 28.5253 30.7655
vt 28.5106 30.7789
vt 28.5013 30.7944
vt 28.4982 30.8111
vt 28.5013 30.8278
vt 28.5106 30.8434
vt 28.5253 30.8568
vt 28.5444 30.867
vt 28.5667 30.8735
vt 28.5906 30.8757
vt 28.6145 30.8735
vt 28.6368 30.867
vt 28.6559 30.8568
vt 28.6706 30.8434
vt 28.6798 30.8278
vt 28.683 30.8111
vt 28.6798 30.7944
vt 28.6706 30.7789
f 26/121/26 25/122/26 27/123/26 28/124/26 29/125/26 30/126/26 31/127/26 32/128/26 33/129/26 34/130/26 35/131/26 36/132/26 37/133/26 38/134/26 39/135/26 40/136/26 41/137/26 42/138/26 43/139/26 44/140/26 45/141/26 46/142/26 47/143/26 48/144/26 

